<svg width="37" height="37" viewBox="0 0 37 37" fill="none" xmlns="http://www.w3.org/2000/svg">
<path fill-rule="evenodd" clip-rule="evenodd" d="M21.192 34.414C20.3288 34.6168 19.4273 34.7242 18.5 34.7242C17.5727 34.7242 16.6712 34.6168 15.808 34.414C14.5245 35.4221 12.89 36.026 11.1102 36.026C6.98286 36.026 3.63699 32.7786 3.63699 28.7726C3.63699 26.1789 5.03965 23.9031 7.1489 22.6209C7.68802 16.9965 12.5643 12.5937 18.5 12.5937C24.4358 12.5937 29.312 16.9965 29.8511 22.621C31.9604 23.9032 33.363 26.1789 33.363 28.7726C33.363 32.7786 30.0171 36.026 25.8898 36.026C24.11 36.026 22.4755 35.4221 21.192 34.414Z" fill="#FFB800"/>
<path d="M8.59627 13.9386C8.59627 17.0448 6.73506 19.563 4.43914 19.563C2.14323 19.563 0.282021 17.0448 0.282021 13.9386C0.282021 10.8324 2.14323 8.31427 4.43914 8.31427C6.73506 8.31427 8.59627 10.8324 8.59627 13.9386Z" fill="#FFB800"/>
<path d="M28.4037 13.9386C28.4037 17.0448 30.2649 19.563 32.5609 19.563C34.8568 19.563 36.718 17.0448 36.718 13.9386C36.718 10.8324 34.8568 8.31427 32.5609 8.31427C30.2649 8.31427 28.4037 10.8324 28.4037 13.9386Z" fill="#FFB800"/>
<path d="M17.3996 5.62437C17.3996 8.7306 15.5384 11.2487 13.2425 11.2487C10.9466 11.2487 9.08537 8.7306 9.08537 5.62437C9.08537 2.51813 10.9466 2.43187e-05 13.2425 2.43187e-05C15.5384 2.43187e-05 17.3996 2.51813 17.3996 5.62437Z" fill="#FFB800"/>
<path d="M19.6004 5.62437C19.6004 8.7306 21.4616 11.2487 23.7575 11.2487C26.0534 11.2487 27.9146 8.7306 27.9146 5.62437C27.9146 2.51813 26.0534 2.43187e-05 23.7575 2.43187e-05C21.4616 2.43187e-05 19.6004 2.51813 19.6004 5.62437Z" fill="#FFB800"/>
</svg>
