<svg width="179" height="40" viewBox="0 0 179 40" fill="none" xmlns="http://www.w3.org/2000/svg">
<path fill-rule="evenodd" clip-rule="evenodd" d="M21.0359 36.4009C20.1728 36.6037 19.2713 36.7111 18.344 36.7111C17.4166 36.7111 16.5151 36.6037 15.652 36.4009C14.3685 37.409 12.734 38.0129 10.9542 38.0129C6.82682 38.0129 3.48096 34.7655 3.48096 30.7595C3.48096 28.1658 4.88361 25.89 6.99286 24.6078C7.53198 18.9834 12.4082 14.5806 18.344 14.5806C24.2797 14.5806 29.156 18.9834 29.6951 24.6079C31.8043 25.8901 33.207 28.1658 33.207 30.7595C33.207 34.7655 29.8611 38.0129 25.7338 38.0129C23.954 38.0129 22.3195 37.409 21.0359 36.4009Z" fill="#FFB800"/>
<path d="M8.44022 15.9255C8.44022 19.0317 6.57901 21.5498 4.2831 21.5498C1.98718 21.5498 0.125977 19.0317 0.125977 15.9255C0.125977 12.8193 1.98718 10.3011 4.2831 10.3011C6.57901 10.3011 8.44022 12.8193 8.44022 15.9255Z" fill="#FFB800"/>
<path d="M28.2478 15.9255C28.2478 19.0317 30.109 21.5498 32.4049 21.5498C34.7008 21.5498 36.562 19.0317 36.562 15.9255C36.562 12.8193 34.7008 10.3011 32.4049 10.3011C30.109 10.3011 28.2478 12.8193 28.2478 15.9255Z" fill="#FFB800"/>
<path d="M17.2437 7.61128C17.2437 10.7175 15.3825 13.2356 13.0866 13.2356C10.7907 13.2356 8.92944 10.7175 8.92944 7.61128C8.92944 4.50504 10.7907 1.98694 13.0866 1.98694C15.3825 1.98694 17.2437 4.50504 17.2437 7.61128Z" fill="#FFB800"/>
<path d="M19.4443 7.61128C19.4443 10.7175 21.3055 13.2356 23.6014 13.2356C25.8973 13.2356 27.7585 10.7175 27.7585 7.61128C27.7585 4.50504 25.8973 1.98694 23.6014 1.98694C21.3055 1.98694 19.4443 4.50504 19.4443 7.61128Z" fill="#FFB800"/>
<path d="M44.9974 22.5192L44.8829 18.7785C44.8829 13.9435 45.4936 9.49017 46.7151 5.41859C46.2062 5.77485 45.7863 6.16929 45.4555 6.60189C44.6157 7.69613 43.7759 8.24325 42.9362 8.24325C42.1219 8.24325 41.7147 7.69613 41.7147 6.60189C41.7147 4.87147 42.3 3.68817 43.4706 3.05198C44.4885 2.46669 45.6718 1.94502 47.0205 1.48697C48.3946 1.00347 49.5779 0.761719 50.5704 0.761719C52.8097 0.761719 54.642 1.63965 56.067 3.39552C57.4921 5.15139 58.2046 7.16173 58.2046 9.42655C58.2046 10.8262 57.9628 12.2767 57.4793 13.7781C56.7159 16.0683 55.2527 17.5824 53.0897 18.3204C51.9191 18.7276 50.8376 18.9311 49.8451 18.9311C48.8527 18.9311 48.102 18.6894 47.593 18.2059V19.8472C47.593 21.8321 47.7076 23.817 47.9366 25.8019L47.9747 26.3745C47.9747 27.2143 47.5803 27.8377 46.7914 28.2449C46.2316 28.5502 45.7227 28.7029 45.2646 28.7029C44.8066 28.7029 44.3231 28.2831 43.8141 27.4433C42.9743 26.0946 42.2618 24.1733 41.6765 21.6795C41.6002 21.3486 41.562 21.0814 41.562 20.8779C41.562 20.6488 41.6638 20.5343 41.8674 20.5343C42.0455 20.5343 42.529 20.9797 43.3179 21.8703C44.1322 22.761 44.6157 23.2063 44.7684 23.2063C44.9211 23.2063 44.9974 22.9773 44.9974 22.5192ZM56.1815 8.12873C56.1815 6.65279 55.6726 5.55855 54.6547 4.84602C53.6368 4.1335 52.339 3.77724 50.7612 3.77724C49.8197 3.77724 49.0563 3.96809 48.471 4.3498C48.5982 4.90964 48.6618 5.36769 48.6618 5.72396C48.6618 6.05477 48.6364 6.46193 48.5855 6.94543C48.5346 7.42893 48.4455 8.24325 48.3183 9.38838C48.1911 10.5335 48.102 11.3987 48.0511 11.984C48.7382 11.1697 49.807 10.7625 51.2575 10.7625C51.6392 10.7625 51.83 10.8262 51.83 10.9534C51.83 11.0552 51.7028 11.1061 51.4483 11.1061C49.7179 11.1061 48.8527 11.6277 48.8527 12.6711C48.8527 13.8926 49.3235 14.5033 50.265 14.5033C50.4431 14.5033 50.6849 14.4779 50.9903 14.427C54.4511 13.689 56.1815 11.5896 56.1815 8.12873Z" fill="#FFB800"/>
<path d="M68.0226 22.9391C68.0226 26.8071 66.0632 28.7411 62.1443 28.7411C60.5156 28.7411 59.3196 28.3212 58.5562 27.4815C57.8182 26.6417 57.1693 25.3566 56.6095 23.6262C56.4059 22.9646 56.3041 22.2647 56.3041 21.5268C56.3041 20.7634 56.6349 19.7582 57.2965 18.5113C57.9836 17.2389 58.7343 16.1319 59.5486 15.1904C59.6504 13.7908 59.9685 13.091 60.5029 13.091C60.7828 13.091 60.9737 13.2564 61.0755 13.5872C61.6099 13.1037 62.2588 12.6329 63.0222 12.1749C63.7856 11.7168 64.4727 11.4878 65.0834 11.4878C65.6942 11.4878 66.3176 11.8441 66.9538 12.5566C67.6154 13.2691 67.9463 14.0071 67.9463 14.7705C67.9463 15.5085 67.4246 16.5264 66.3812 17.8242C64.4218 20.2671 62.8822 21.4886 61.7626 21.4886C60.9482 21.4886 60.312 20.8143 59.854 19.4655C59.8286 19.5164 59.7013 19.7327 59.4723 20.1144C59.2687 20.4707 59.116 20.7379 59.0142 20.916C58.9379 21.0942 58.8234 21.3359 58.6707 21.6413C58.4162 22.2266 58.289 22.7482 58.289 23.2063C58.289 24.2496 58.8107 24.7713 59.854 24.7713C61.5844 24.7713 63.0476 24.4151 64.2437 23.7025C65.4651 22.9646 66.6739 21.8576 67.8699 20.3816C67.9717 21.5013 68.0226 22.3538 68.0226 22.9391ZM61.8007 18.3204C62.2079 18.3204 62.8059 17.8242 63.5948 16.8317C64.4091 15.8393 64.8162 15.1649 64.8162 14.8087C64.8162 14.427 64.6763 14.2361 64.3964 14.2361C64.1419 14.2361 63.6838 14.5669 63.0222 15.2285C62.386 15.8902 61.8771 16.4627 61.4954 16.9462C61.4445 17.2516 61.419 17.4806 61.419 17.6333C61.419 18.0914 61.5462 18.3204 61.8007 18.3204Z" fill="#FFB800"/>
<path d="M75.0428 11.1824L78.0583 11.0297C78.8472 11.0297 79.2416 11.5387 79.2416 12.5566C79.2416 13.0655 79.0762 13.4472 78.7454 13.7017C77.9311 14.4397 76.5315 14.9486 74.5466 15.2285C74.2921 17.646 74.1649 19.6564 74.1649 21.2596C74.1649 22.8628 74.2794 23.6644 74.5084 23.6644C74.6611 23.6644 75.1955 23.2572 76.1116 22.4429C77.0277 21.6286 77.5366 21.2214 77.6384 21.2214C78.071 21.2214 78.2873 21.883 78.2873 23.2063C78.2873 24.5041 78.0456 25.7892 77.5621 27.0616C77.0786 28.3339 76.3915 28.9701 75.5009 28.9701C75.1191 28.9701 74.7374 28.8302 74.3557 28.5503C73.974 28.2958 73.6814 28.0413 73.4778 27.7868C73.2997 27.5069 73.0325 27.0997 72.6762 26.5654C72.3454 26.031 72.1418 25.7129 72.0655 25.6111C71.3784 24.6695 70.9967 23.7407 70.9203 22.8246C70.8694 21.883 70.844 20.7888 70.844 19.5419C70.844 18.295 70.9203 16.9462 71.073 15.4957C70.2841 15.4703 69.6225 15.1904 69.0881 14.656C68.5792 14.1216 68.1847 13.4854 67.9048 12.7474C67.5994 11.984 67.4468 11.5514 67.4468 11.4496C67.4468 11.1188 67.6376 10.9534 68.0193 10.9534L71.6837 11.1824C71.811 10.3936 72.0146 9.29931 72.2945 7.89971C72.7271 5.86392 72.9434 4.68061 72.9434 4.3498L72.867 3.62455C72.867 3.21739 73.0961 3.01381 73.5541 3.01381C74.0122 3.01381 74.572 3.24284 75.2337 3.70089C75.8953 4.15894 76.2261 4.59155 76.2261 4.99871C76.2261 5.17684 76.137 5.5331 75.9589 6.0675C75.7299 6.88181 75.4245 8.58679 75.0428 11.1824Z" fill="#FFB800"/>
<path d="M87.5841 10.8007C88.2457 10.8007 89.0346 11.0679 89.9507 11.6023C90.8668 12.1112 91.3248 12.722 91.3248 13.4345C91.3248 14.1216 91.0449 14.7451 90.4851 15.3049C89.9507 15.8647 89.3399 16.1447 88.6529 16.1447C87.6095 16.1447 86.8843 15.6612 86.4771 14.6942C86.4262 14.5415 86.3372 14.4651 86.2099 14.4651C86.1081 14.4651 85.6882 14.6178 84.9503 14.9232C84.2377 15.2286 83.7542 15.4449 83.4998 15.5721C83.2453 15.6993 83.1181 15.8266 83.1181 15.9538C83.1181 16.0556 83.2962 16.1955 83.6525 16.3737C88.1821 17.5952 90.4469 19.4655 90.4469 21.9848C90.4469 22.8755 90.0906 23.8043 89.3781 24.7713C88.691 25.7129 87.7113 26.489 86.4389 27.0997C85.1666 27.7105 83.9451 28.0159 82.7745 28.0159C81.6039 28.0159 80.7769 27.6978 80.2934 27.0616C79.8354 26.4254 79.6063 25.5093 79.6063 24.3133C79.6063 23.1172 80.0262 22.2266 80.866 21.6413C81.9857 20.9033 82.9018 20.5343 83.6143 20.5343C83.7924 20.5343 83.8815 20.5852 83.8815 20.687C83.8815 20.7634 83.6779 20.916 83.2707 21.1451C82.889 21.3741 82.4692 21.7049 82.0111 22.1375C81.5785 22.5701 81.3622 22.9264 81.3622 23.2063C81.3622 23.4608 81.6676 23.588 82.2783 23.588C83.9069 23.588 85.5101 23.13 87.0879 22.2139C87.4441 22.0357 87.6222 21.8321 87.6222 21.6031C87.6222 21.3486 87.355 21.0942 86.8207 20.8397C86.2863 20.5852 85.3829 20.2162 84.1105 19.7327C82.8636 19.2492 81.8711 18.8421 81.1332 18.5113C80.4206 18.155 80.0644 17.5824 80.0644 16.7936C80.0644 16.5645 80.1153 16.2464 80.2171 15.8393C80.3443 15.4067 80.4206 15.114 80.4461 14.9614C80.5733 14.0707 80.9678 13.46 81.6294 13.1291C82.3165 12.7983 83.7797 12.1112 86.0191 11.0679C86.4008 10.8898 86.9224 10.8007 87.5841 10.8007Z" fill="#FFB800"/>
<path d="M98.3406 11.1824L101.356 11.0297C102.145 11.0297 102.539 11.5387 102.539 12.5566C102.539 13.0655 102.374 13.4472 102.043 13.7017C101.229 14.4397 99.8292 14.9486 97.8443 15.2285C97.5899 17.646 97.4626 19.6564 97.4626 21.2596C97.4626 22.8628 97.5771 23.6644 97.8062 23.6644C97.9588 23.6644 98.4932 23.2572 99.4094 22.4429C100.325 21.6286 100.834 21.2214 100.936 21.2214C101.369 21.2214 101.585 21.883 101.585 23.2063C101.585 24.5041 101.343 25.7892 100.86 27.0616C100.376 28.3339 99.6893 28.9701 98.7986 28.9701C98.4169 28.9701 98.0352 28.8302 97.6535 28.5503C97.2718 28.2958 96.9791 28.0413 96.7755 27.7868C96.5974 27.5069 96.3302 27.0997 95.974 26.5654C95.6431 26.031 95.4396 25.7129 95.3632 25.6111C94.6761 24.6695 94.2944 23.7407 94.2181 22.8246C94.1672 21.883 94.1417 20.7888 94.1417 19.5419C94.1417 18.295 94.2181 16.9462 94.3708 15.4957C93.5819 15.4703 92.9203 15.1904 92.3859 14.656C91.8769 14.1216 91.4825 13.4854 91.2026 12.7474C90.8972 11.984 90.7445 11.5514 90.7445 11.4496C90.7445 11.1188 90.9354 10.9534 91.3171 10.9534L94.9815 11.1824C95.1087 10.3936 95.3123 9.29931 95.5922 7.89971C96.0249 5.86392 96.2412 4.68061 96.2412 4.3498L96.1648 3.62455C96.1648 3.21739 96.3938 3.01381 96.8519 3.01381C97.3099 3.01381 97.8698 3.24284 98.5314 3.70089C99.193 4.15894 99.5239 4.59155 99.5239 4.99871C99.5239 5.17684 99.4348 5.5331 99.2567 6.0675C99.0276 6.88181 98.7223 8.58679 98.3406 11.1824Z" fill="#FFB800"/>
<path d="M111.378 22.9391C109.291 26.6799 107.701 28.5503 106.607 28.5503C105.818 28.5503 105.105 28.0667 104.469 27.0997C104.291 26.8453 104.1 26.4508 103.897 25.9164C103.693 25.3566 103.438 24.8477 103.133 24.3896C102.853 23.9316 102.713 23.3208 102.713 22.5574C102.713 21.7685 102.866 21.0687 103.171 20.458C105.258 16.3355 107.459 13.5109 109.775 11.984C110.08 11.755 110.437 11.6405 110.844 11.6405C111.251 11.6405 111.76 11.8695 112.371 12.3276C112.727 12.6838 112.943 12.9892 113.019 13.2437C113.147 13.8035 113.21 14.147 113.21 14.2743C114.101 14.5796 114.546 15.1395 114.546 15.9538C114.546 16.5136 114.394 17.786 114.088 19.7709C113.783 21.7304 113.605 23.1936 113.554 24.1606C113.554 24.695 113.732 24.9622 114.088 24.9622C114.495 24.9622 115.221 24.2496 116.264 22.8246C117.333 21.3995 117.943 20.687 118.096 20.687C118.351 20.687 118.478 21.1069 118.478 21.9467L118.402 23.817C118.402 24.5296 118.083 25.5093 117.447 26.7562C116.811 27.9777 115.997 28.5884 115.004 28.5884C114.394 28.5884 113.91 28.3848 113.554 27.9777C113.427 27.8504 113.236 27.596 112.981 27.2143C112.192 26.0691 111.658 24.6441 111.378 22.9391ZM111.722 14.1216C108.515 17.048 106.479 20.3944 105.614 24.1606C108.184 21.9467 110.22 18.6003 111.722 14.1216Z" fill="#FFB800"/>
<path d="M123.401 33.856L123.477 33.4361C123.477 33.2326 123.553 33.0926 123.706 33.0163C123.859 32.9654 123.986 32.9018 124.088 32.8254C124.19 32.7745 124.317 32.6854 124.47 32.5582C124.826 32.3037 125.118 32.1765 125.347 32.1765C125.602 32.1765 125.806 32.2147 125.958 32.291C126.136 32.3674 126.251 32.4055 126.302 32.4055C126.582 32.4055 126.722 31.8839 126.722 30.8405C126.849 28.3721 127.091 25.4584 127.447 22.0993C126.709 23.2699 125.742 24.5168 124.546 25.8401C123.35 27.1379 122.396 27.7868 121.683 27.7868C120.971 27.7868 120.385 27.4687 119.927 26.8326C119.087 25.6365 118.668 24.2624 118.668 22.7101C118.668 20.4198 119.876 17.926 122.294 15.2285C123.134 14.3124 123.757 13.6635 124.164 13.2818C124.597 12.8747 125.258 12.2639 126.149 11.4496C127.04 10.6099 127.841 10.19 128.554 10.19C129.266 10.19 129.813 10.4444 130.195 10.9534C130.577 11.4623 130.768 12.0476 130.768 12.7093C130.768 13.3454 130.615 14.2234 130.31 15.3431C130.513 15.4703 130.615 15.6612 130.615 15.9156C130.615 16.1447 130.59 16.3864 130.539 16.6409C129.394 23.817 128.745 28.5248 128.592 30.7642C128.465 33.0035 128.401 34.7721 128.401 36.07L128.439 38.093C128.439 38.4238 128.35 38.691 128.172 38.8946C127.994 39.1236 127.765 39.2381 127.485 39.2381C127.205 39.2381 126.734 38.9837 126.073 38.4747C125.437 37.9912 124.826 37.7495 124.241 37.7495L123.363 37.8258C123.057 37.8258 122.905 37.6859 122.905 37.4059L123.401 33.856ZM127.943 15.7248C128.07 15.4194 128.134 15.1268 128.134 14.8468C128.134 14.5669 128.032 14.427 127.829 14.427C127.752 14.427 127.663 14.4524 127.561 14.5033C126.06 15.2413 124.737 16.221 123.592 17.4425C122.446 18.6639 121.594 20.0254 121.034 21.5268C120.932 21.8321 120.881 22.0993 120.881 22.3284C120.881 22.8373 121.072 23.0918 121.454 23.0918C121.658 23.0918 121.887 23.0154 122.141 22.8628C123.312 22.0739 124.419 21.0306 125.462 19.7327C126.505 18.4349 127.332 17.0989 127.943 15.7248Z" fill="#FFB800"/>
<path d="M143.696 19.3892C143.874 19.3892 143.963 19.9236 143.963 20.9924C143.963 22.0357 143.606 23.0918 142.894 24.1606C142.589 24.7713 142.092 25.4838 141.405 26.2982C140.744 27.087 140.298 27.5705 140.069 27.7487C139.382 28.2322 138.822 28.4739 138.39 28.4739C137.983 28.4739 137.677 28.4485 137.474 28.3976C137.27 28.3467 137.066 28.2322 136.863 28.054C136.685 27.9013 136.532 27.7868 136.405 27.7105C136.303 27.6087 136.163 27.4306 135.985 27.1761C135.832 26.8962 135.73 26.718 135.68 26.6417C135.629 26.5654 135.514 26.3618 135.336 26.031C135.158 25.7001 135.069 25.522 135.069 25.4966C134.585 24.6059 134.344 23.7661 134.344 22.9773C134.344 22.163 134.407 21.4123 134.534 20.7252C134.687 20.0127 134.916 19.1474 135.222 18.1295C135.527 17.1117 135.718 16.4627 135.794 16.1828C135.412 16.6663 134.903 17.188 134.267 17.7478C134.013 17.9514 133.733 18.0532 133.428 18.0532C133.148 18.0532 132.906 17.926 132.702 17.6715C132.524 17.3916 132.282 16.8063 131.977 15.9156C131.672 15.025 131.519 14.427 131.519 14.1216C131.519 13.7908 131.723 13.2945 132.13 12.6329C132.537 11.9458 132.779 11.4878 132.855 11.2588C132.982 10.8007 133.173 10.5717 133.428 10.5717C133.555 10.5717 133.86 10.7116 134.344 10.9916C134.827 11.246 135.145 11.755 135.298 12.5184C135.349 12.8238 135.463 12.9765 135.641 12.9765C135.718 12.9765 135.934 12.8365 136.29 12.5566C136.672 12.2767 137.079 12.1367 137.512 12.1367C137.97 12.1367 138.644 12.5439 139.535 13.3582C139.84 13.6635 139.993 14.0961 139.993 14.656C139.993 15.2158 139.955 15.6103 139.878 15.8393C139.828 16.0683 139.764 16.221 139.688 16.2973C139.459 16.4755 139.28 16.7299 139.153 17.0608C139.051 17.3661 138.708 18.5622 138.123 20.6488C137.563 22.7101 137.283 23.8425 137.283 24.0461C137.283 24.2496 137.359 24.3514 137.512 24.3514C137.715 24.3514 138.53 23.7407 139.955 22.5192C141.38 21.2978 142.41 20.3944 143.047 19.8091C143.428 19.5292 143.645 19.3892 143.696 19.3892Z" fill="#FFB800"/>
<path d="M152.27 22.9391C150.184 26.6799 148.593 28.5503 147.499 28.5503C146.71 28.5503 145.998 28.0667 145.361 27.0997C145.183 26.8453 144.992 26.4508 144.789 25.9164C144.585 25.3566 144.331 24.8477 144.025 24.3896C143.745 23.9316 143.605 23.3208 143.605 22.5574C143.605 21.7685 143.758 21.0687 144.064 20.458C146.15 16.3355 148.351 13.5109 150.667 11.984C150.972 11.755 151.329 11.6405 151.736 11.6405C152.143 11.6405 152.652 11.8695 153.263 12.3276C153.619 12.6838 153.835 12.9892 153.912 13.2437C154.039 13.8035 154.103 14.147 154.103 14.2743C154.993 14.5796 155.438 15.1395 155.438 15.9538C155.438 16.5136 155.286 17.786 154.98 19.7709C154.675 21.7304 154.497 23.1936 154.446 24.1606C154.446 24.695 154.624 24.9622 154.98 24.9622C155.388 24.9622 156.113 24.2496 157.156 22.8246C158.225 21.3995 158.836 20.687 158.988 20.687C159.243 20.687 159.37 21.1069 159.37 21.9467L159.294 23.817C159.294 24.5296 158.976 25.5093 158.339 26.7562C157.703 27.9777 156.889 28.5884 155.897 28.5884C155.286 28.5884 154.802 28.3848 154.446 27.9777C154.319 27.8504 154.128 27.596 153.873 27.2143C153.085 26.0691 152.55 24.6441 152.27 22.9391ZM152.614 14.1216C149.407 17.048 147.372 20.3944 146.506 24.1606C149.077 21.9467 151.112 18.6003 152.614 14.1216Z" fill="#FFB800"/>
<path d="M172.118 22.9773L172.423 15.0759C172.423 14.7705 172.398 14.6178 172.347 14.6178C172.245 14.6178 172.131 14.8214 172.004 15.2285C171.545 16.3991 170.477 20.0508 168.797 26.1836C168.543 27.0743 168.275 27.5196 167.996 27.5196C167.868 27.5196 167.639 27.4178 167.308 27.2143C166.011 26.2727 165.362 25.1149 165.362 23.7407C165.362 22.6465 165.54 21.1578 165.896 19.2747C166.303 16.9335 166.507 15.6739 166.507 15.4957C166.507 15.2922 166.469 15.1904 166.392 15.1904C166.341 15.1904 166.252 15.3176 166.125 15.5721C164.827 18.6767 164.038 22.3793 163.759 26.6799C163.708 27.4433 163.453 27.825 162.995 27.825C162.384 27.825 161.837 27.4687 161.354 26.7562C160.463 25.4838 160.018 24.0588 160.018 22.4811C160.018 21.4886 160.132 20.229 160.361 18.7021C160.616 17.1753 160.769 16.2464 160.819 15.9156C161.252 13.2437 161.646 11.9077 162.003 11.9077C162.283 11.9077 162.499 12.2767 162.652 13.0146C162.804 13.7272 162.881 14.2488 162.881 14.5796C162.881 14.9105 162.932 15.0759 163.033 15.0759C163.313 15.0759 163.593 14.7832 163.873 14.1979C164.153 13.5872 164.497 12.9892 164.904 12.4039C165.311 11.7932 165.807 11.4878 166.392 11.4878C167.003 11.4878 167.563 11.7168 168.072 12.1749C168.581 12.6075 168.899 13.1419 169.026 13.7781C169.332 13.3454 169.84 12.7474 170.553 11.984C170.935 11.4496 171.316 11.1824 171.698 11.1824C172.105 11.1824 172.691 11.3733 173.454 11.755C174.497 12.2894 175.019 13.689 175.019 15.9538C175.019 18.2186 174.943 20.1653 174.79 21.794V22.0612C174.79 22.4429 174.866 22.6337 175.019 22.6337C175.248 22.6337 175.808 21.9976 176.699 20.7252C177.589 19.4274 178.136 18.7785 178.34 18.7785C178.696 18.7785 178.874 19.6946 178.874 21.5268C178.874 23.3335 178.225 25.1403 176.928 26.9471C176.317 27.7868 175.795 28.2067 175.363 28.2067L174.943 28.0922C173.925 27.5578 173.2 26.9471 172.767 26.26C172.334 25.5729 172.118 24.4787 172.118 22.9773Z" fill="#FFB800"/>
<path fill-rule="evenodd" clip-rule="evenodd" d="M21.0359 36.4009C20.1728 36.6037 19.2713 36.7111 18.344 36.7111C17.4166 36.7111 16.5151 36.6037 15.652 36.4009C14.3685 37.409 12.734 38.0129 10.9542 38.0129C6.82682 38.0129 3.48096 34.7655 3.48096 30.7595C3.48096 28.1658 4.88361 25.89 6.99286 24.6078C7.53198 18.9834 12.4082 14.5806 18.344 14.5806C24.2797 14.5806 29.156 18.9834 29.6951 24.6079C31.8043 25.8901 33.207 28.1658 33.207 30.7595C33.207 34.7655 29.8611 38.0129 25.7338 38.0129C23.954 38.0129 22.3195 37.409 21.0359 36.4009Z" fill="#FFB800"/>
<path d="M8.44022 15.9255C8.44022 19.0317 6.57901 21.5498 4.2831 21.5498C1.98718 21.5498 0.125977 19.0317 0.125977 15.9255C0.125977 12.8193 1.98718 10.3011 4.2831 10.3011C6.57901 10.3011 8.44022 12.8193 8.44022 15.9255Z" fill="#FFB800"/>
<path d="M28.2478 15.9255C28.2478 19.0317 30.109 21.5498 32.4049 21.5498C34.7008 21.5498 36.562 19.0317 36.562 15.9255C36.562 12.8193 34.7008 10.3011 32.4049 10.3011C30.109 10.3011 28.2478 12.8193 28.2478 15.9255Z" fill="#FFB800"/>
<path d="M44.9974 22.5192L44.8829 18.7785C44.8829 13.9435 45.4936 9.49017 46.7151 5.41859C46.2062 5.77485 45.7863 6.16929 45.4555 6.60189C44.6157 7.69613 43.7759 8.24325 42.9362 8.24325C42.1219 8.24325 41.7147 7.69613 41.7147 6.60189C41.7147 4.87147 42.3 3.68817 43.4706 3.05198C44.4885 2.46669 45.6718 1.94502 47.0205 1.48697C48.3946 1.00347 49.5779 0.761719 50.5704 0.761719C52.8097 0.761719 54.642 1.63965 56.067 3.39552C57.4921 5.15139 58.2046 7.16173 58.2046 9.42655C58.2046 10.8262 57.9628 12.2767 57.4793 13.7781C56.7159 16.0683 55.2527 17.5824 53.0897 18.3204C51.9191 18.7276 50.8376 18.9311 49.8451 18.9311C48.8527 18.9311 48.102 18.6894 47.593 18.2059V19.8472C47.593 21.8321 47.7076 23.817 47.9366 25.8019L47.9747 26.3745C47.9747 27.2143 47.5803 27.8377 46.7914 28.2449C46.2316 28.5502 45.7227 28.7029 45.2646 28.7029C44.8066 28.7029 44.3231 28.2831 43.8141 27.4433C42.9743 26.0946 42.2618 24.1733 41.6765 21.6795C41.6002 21.3486 41.562 21.0814 41.562 20.8779C41.562 20.6488 41.6638 20.5343 41.8674 20.5343C42.0455 20.5343 42.529 20.9797 43.3179 21.8703C44.1322 22.761 44.6157 23.2063 44.7684 23.2063C44.9211 23.2063 44.9974 22.9773 44.9974 22.5192ZM56.1815 8.12873C56.1815 6.65279 55.6726 5.55855 54.6547 4.84602C53.6368 4.1335 52.339 3.77724 50.7612 3.77724C49.8197 3.77724 49.0563 3.96809 48.471 4.3498C48.5982 4.90964 48.6618 5.36769 48.6618 5.72396C48.6618 6.05477 48.6364 6.46193 48.5855 6.94543C48.5346 7.42893 48.4455 8.24325 48.3183 9.38838C48.1911 10.5335 48.102 11.3987 48.0511 11.984C48.7382 11.1697 49.807 10.7625 51.2575 10.7625C51.6392 10.7625 51.83 10.8262 51.83 10.9534C51.83 11.0552 51.7028 11.1061 51.4483 11.1061C49.7179 11.1061 48.8527 11.6277 48.8527 12.6711C48.8527 13.8926 49.3235 14.5033 50.265 14.5033C50.4431 14.5033 50.6849 14.4779 50.9903 14.427C54.4511 13.689 56.1815 11.5896 56.1815 8.12873Z" fill="#FFB800"/>
<path d="M68.0226 22.9391C68.0226 26.8071 66.0632 28.7411 62.1443 28.7411C60.5156 28.7411 59.3196 28.3212 58.5562 27.4815C57.8182 26.6417 57.1693 25.3566 56.6095 23.6262C56.4059 22.9646 56.3041 22.2647 56.3041 21.5268C56.3041 20.7634 56.6349 19.7582 57.2965 18.5113C57.9836 17.2389 58.7343 16.1319 59.5486 15.1904C59.6504 13.7908 59.9685 13.091 60.5029 13.091C60.7828 13.091 60.9737 13.2564 61.0755 13.5872C61.6099 13.1037 62.2588 12.6329 63.0222 12.1749C63.7856 11.7168 64.4727 11.4878 65.0834 11.4878C65.6942 11.4878 66.3176 11.8441 66.9538 12.5566C67.6154 13.2691 67.9463 14.0071 67.9463 14.7705C67.9463 15.5085 67.4246 16.5264 66.3812 17.8242C64.4218 20.2671 62.8822 21.4886 61.7626 21.4886C60.9482 21.4886 60.3121 20.8143 59.854 19.4655C59.8286 19.5164 59.7013 19.7327 59.4723 20.1144C59.2687 20.4707 59.116 20.7379 59.0142 20.916C58.9379 21.0942 58.8234 21.3359 58.6707 21.6413C58.4162 22.2266 58.289 22.7482 58.289 23.2063C58.289 24.2496 58.8107 24.7713 59.854 24.7713C61.5844 24.7713 63.0476 24.4151 64.2437 23.7025C65.4651 22.9646 66.6739 21.8576 67.8699 20.3816C67.9717 21.5013 68.0226 22.3538 68.0226 22.9391ZM61.8007 18.3204C62.2079 18.3204 62.8059 17.8242 63.5948 16.8317C64.4091 15.8393 64.8162 15.1649 64.8162 14.8087C64.8162 14.427 64.6763 14.2361 64.3964 14.2361C64.1419 14.2361 63.6838 14.5669 63.0222 15.2285C62.386 15.8902 61.8771 16.4627 61.4954 16.9462C61.4445 17.2516 61.419 17.4806 61.419 17.6333C61.419 18.0914 61.5462 18.3204 61.8007 18.3204Z" fill="#FFB800"/>
<path d="M75.0428 11.1824L78.0583 11.0297C78.8472 11.0297 79.2416 11.5387 79.2416 12.5566C79.2416 13.0655 79.0762 13.4472 78.7454 13.7017C77.9311 14.4397 76.5315 14.9486 74.5466 15.2285C74.2921 17.6461 74.1649 19.6564 74.1649 21.2596C74.1649 22.8628 74.2794 23.6644 74.5084 23.6644C74.6611 23.6644 75.1955 23.2572 76.1116 22.4429C77.0277 21.6286 77.5366 21.2214 77.6384 21.2214C78.071 21.2214 78.2873 21.883 78.2873 23.2063C78.2873 24.5041 78.0456 25.7892 77.5621 27.0616C77.0786 28.3339 76.3915 28.9701 75.5009 28.9701C75.1191 28.9701 74.7374 28.8302 74.3557 28.5503C73.974 28.2958 73.6814 28.0413 73.4778 27.7868C73.2997 27.5069 73.0325 27.0997 72.6762 26.5654C72.3454 26.031 72.1418 25.7129 72.0655 25.6111C71.3784 24.6695 70.9967 23.7407 70.9203 22.8246C70.8694 21.883 70.844 20.7888 70.844 19.5419C70.844 18.295 70.9203 16.9462 71.073 15.4957C70.2841 15.4703 69.6225 15.1904 69.0881 14.656C68.5792 14.1216 68.1847 13.4854 67.9048 12.7474C67.5994 11.984 67.4468 11.5514 67.4468 11.4496C67.4468 11.1188 67.6376 10.9534 68.0193 10.9534L71.6837 11.1824C71.811 10.3936 72.0146 9.29931 72.2945 7.89971C72.7271 5.86392 72.9434 4.68062 72.9434 4.3498L72.867 3.62455C72.867 3.21739 73.0961 3.01381 73.5541 3.01381C74.0122 3.01381 74.572 3.24284 75.2337 3.70089C75.8953 4.15894 76.2261 4.59155 76.2261 4.99871C76.2261 5.17684 76.137 5.5331 75.9589 6.0675C75.7299 6.88181 75.4245 8.58679 75.0428 11.1824Z" fill="#FFB800"/>
<path d="M87.5841 10.8007C88.2457 10.8007 89.0346 11.0679 89.9507 11.6023C90.8668 12.1112 91.3248 12.722 91.3248 13.4345C91.3248 14.1216 91.0449 14.7451 90.4851 15.3049C89.9507 15.8647 89.3399 16.1447 88.6529 16.1447C87.6095 16.1447 86.8843 15.6612 86.4771 14.6942C86.4262 14.5415 86.3372 14.4651 86.2099 14.4651C86.1081 14.4651 85.6882 14.6178 84.9503 14.9232C84.2377 15.2286 83.7542 15.4449 83.4998 15.5721C83.2453 15.6993 83.1181 15.8266 83.1181 15.9538C83.1181 16.0556 83.2962 16.1955 83.6525 16.3737C88.1821 17.5952 90.4469 19.4655 90.4469 21.9848C90.4469 22.8755 90.0906 23.8043 89.3781 24.7713C88.691 25.7129 87.7113 26.489 86.4389 27.0997C85.1666 27.7105 83.9451 28.0159 82.7745 28.0159C81.6039 28.0159 80.7769 27.6978 80.2934 27.0616C79.8354 26.4254 79.6063 25.5093 79.6063 24.3133C79.6063 23.1172 80.0262 22.2266 80.866 21.6413C81.9857 20.9033 82.9018 20.5343 83.6143 20.5343C83.7924 20.5343 83.8815 20.5852 83.8815 20.687C83.8815 20.7634 83.6779 20.916 83.2707 21.1451C82.889 21.3741 82.4692 21.7049 82.0111 22.1375C81.5785 22.5701 81.3622 22.9264 81.3622 23.2063C81.3622 23.4608 81.6676 23.588 82.2783 23.588C83.9069 23.588 85.5101 23.13 87.0879 22.2139C87.4441 22.0357 87.6222 21.8321 87.6222 21.6031C87.6222 21.3486 87.355 21.0942 86.8207 20.8397C86.2863 20.5852 85.3829 20.2162 84.1105 19.7327C82.8636 19.2492 81.8711 18.8421 81.1332 18.5113C80.4206 18.155 80.0644 17.5824 80.0644 16.7936C80.0644 16.5645 80.1153 16.2464 80.2171 15.8393C80.3443 15.4067 80.4206 15.114 80.4461 14.9614C80.5733 14.0707 80.9678 13.46 81.6294 13.1291C82.3165 12.7983 83.7797 12.1112 86.0191 11.0679C86.4008 10.8898 86.9224 10.8007 87.5841 10.8007Z" fill="#FFB800"/>
<path d="M98.3406 11.1824L101.356 11.0297C102.145 11.0297 102.539 11.5387 102.539 12.5566C102.539 13.0655 102.374 13.4472 102.043 13.7017C101.229 14.4397 99.8292 14.9486 97.8443 15.2285C97.5899 17.6461 97.4626 19.6564 97.4626 21.2596C97.4626 22.8628 97.5771 23.6644 97.8062 23.6644C97.9588 23.6644 98.4932 23.2572 99.4094 22.4429C100.325 21.6286 100.834 21.2214 100.936 21.2214C101.369 21.2214 101.585 21.883 101.585 23.2063C101.585 24.5041 101.343 25.7892 100.86 27.0616C100.376 28.3339 99.6893 28.9701 98.7986 28.9701C98.4169 28.9701 98.0352 28.8302 97.6535 28.5503C97.2718 28.2958 96.9791 28.0413 96.7755 27.7868C96.5974 27.5069 96.3302 27.0997 95.974 26.5654C95.6431 26.031 95.4396 25.7129 95.3632 25.6111C94.6761 24.6695 94.2944 23.7407 94.2181 22.8246C94.1672 21.883 94.1417 20.7888 94.1417 19.5419C94.1417 18.295 94.2181 16.9462 94.3708 15.4957C93.5819 15.4703 92.9203 15.1904 92.3859 14.656C91.8769 14.1216 91.4825 13.4854 91.2026 12.7474C90.8972 11.984 90.7445 11.5514 90.7445 11.4496C90.7445 11.1188 90.9354 10.9534 91.3171 10.9534L94.9815 11.1824C95.1087 10.3936 95.3123 9.29931 95.5922 7.89971C96.0249 5.86392 96.2412 4.68062 96.2412 4.3498L96.1648 3.62455C96.1648 3.21739 96.3938 3.01381 96.8519 3.01381C97.3099 3.01381 97.8698 3.24284 98.5314 3.70089C99.193 4.15894 99.5239 4.59155 99.5239 4.99871C99.5239 5.17684 99.4348 5.5331 99.2567 6.0675C99.0276 6.88181 98.7223 8.58679 98.3406 11.1824Z" fill="#FFB800"/>
<path d="M111.378 22.9391C109.291 26.6799 107.701 28.5503 106.607 28.5503C105.818 28.5503 105.105 28.0667 104.469 27.0997C104.291 26.8453 104.1 26.4508 103.897 25.9164C103.693 25.3566 103.438 24.8477 103.133 24.3896C102.853 23.9316 102.713 23.3208 102.713 22.5574C102.713 21.7685 102.866 21.0687 103.171 20.458C105.258 16.3355 107.459 13.5109 109.775 11.984C110.08 11.755 110.437 11.6405 110.844 11.6405C111.251 11.6405 111.76 11.8695 112.371 12.3276C112.727 12.6838 112.943 12.9892 113.019 13.2437C113.147 13.8035 113.21 14.147 113.21 14.2743C114.101 14.5796 114.546 15.1395 114.546 15.9538C114.546 16.5136 114.394 17.786 114.088 19.7709C113.783 21.7304 113.605 23.1936 113.554 24.1606C113.554 24.695 113.732 24.9622 114.088 24.9622C114.495 24.9622 115.221 24.2496 116.264 22.8246C117.333 21.3995 117.943 20.687 118.096 20.687C118.351 20.687 118.478 21.1069 118.478 21.9467L118.402 23.817C118.402 24.5296 118.083 25.5093 117.447 26.7562C116.811 27.9777 115.997 28.5884 115.004 28.5884C114.394 28.5884 113.91 28.3848 113.554 27.9777C113.427 27.8504 113.236 27.596 112.981 27.2143C112.192 26.0691 111.658 24.6441 111.378 22.9391ZM111.722 14.1216C108.515 17.048 106.479 20.3944 105.614 24.1606C108.184 21.9467 110.22 18.6003 111.722 14.1216Z" fill="#FFB800"/>
<path d="M123.401 33.856L123.477 33.4361C123.477 33.2326 123.553 33.0926 123.706 33.0163C123.859 32.9654 123.986 32.9018 124.088 32.8254C124.19 32.7745 124.317 32.6854 124.47 32.5582C124.826 32.3037 125.118 32.1765 125.347 32.1765C125.602 32.1765 125.806 32.2147 125.958 32.291C126.136 32.3674 126.251 32.4055 126.302 32.4055C126.582 32.4055 126.722 31.8839 126.722 30.8405C126.849 28.3721 127.091 25.4584 127.447 22.0993C126.709 23.2699 125.742 24.5168 124.546 25.8401C123.35 27.1379 122.396 27.7868 121.683 27.7868C120.971 27.7868 120.385 27.4687 119.927 26.8326C119.087 25.6365 118.668 24.2624 118.668 22.7101C118.668 20.4198 119.876 17.926 122.294 15.2285C123.134 14.3124 123.757 13.6635 124.164 13.2818C124.597 12.8747 125.258 12.2639 126.149 11.4496C127.04 10.6099 127.841 10.19 128.554 10.19C129.266 10.19 129.813 10.4444 130.195 10.9534C130.577 11.4623 130.768 12.0476 130.768 12.7093C130.768 13.3454 130.615 14.2234 130.31 15.3431C130.513 15.4703 130.615 15.6612 130.615 15.9156C130.615 16.1447 130.59 16.3864 130.539 16.6409C129.394 23.817 128.745 28.5248 128.592 30.7642C128.465 33.0035 128.401 34.7721 128.401 36.07L128.439 38.093C128.439 38.4238 128.35 38.691 128.172 38.8946C127.994 39.1236 127.765 39.2381 127.485 39.2381C127.205 39.2381 126.734 38.9837 126.073 38.4747C125.437 37.9912 124.826 37.7495 124.241 37.7495L123.363 37.8258C123.057 37.8258 122.905 37.6859 122.905 37.4059L123.401 33.856ZM127.943 15.7248C128.07 15.4194 128.134 15.1268 128.134 14.8468C128.134 14.5669 128.032 14.427 127.829 14.427C127.752 14.427 127.663 14.4524 127.561 14.5033C126.06 15.2413 124.737 16.221 123.592 17.4425C122.446 18.6639 121.594 20.0254 121.034 21.5268C120.932 21.8321 120.881 22.0993 120.881 22.3284C120.881 22.8373 121.072 23.0918 121.454 23.0918C121.658 23.0918 121.887 23.0154 122.141 22.8628C123.312 22.0739 124.419 21.0306 125.462 19.7327C126.505 18.4349 127.332 17.0989 127.943 15.7248Z" fill="#FFB800"/>
<path d="M143.696 19.3892C143.874 19.3892 143.963 19.9236 143.963 20.9924C143.963 22.0357 143.606 23.0918 142.894 24.1606C142.589 24.7713 142.092 25.4838 141.405 26.2982C140.744 27.087 140.298 27.5705 140.069 27.7487C139.382 28.2322 138.822 28.4739 138.39 28.4739C137.983 28.4739 137.677 28.4485 137.474 28.3976C137.27 28.3467 137.066 28.2322 136.863 28.054C136.685 27.9013 136.532 27.7868 136.405 27.7105C136.303 27.6087 136.163 27.4306 135.985 27.1761C135.832 26.8962 135.73 26.718 135.68 26.6417C135.629 26.5654 135.514 26.3618 135.336 26.031C135.158 25.7001 135.069 25.522 135.069 25.4966C134.585 24.6059 134.344 23.7661 134.344 22.9773C134.344 22.163 134.407 21.4123 134.534 20.7252C134.687 20.0127 134.916 19.1474 135.222 18.1295C135.527 17.1117 135.718 16.4627 135.794 16.1828C135.412 16.6663 134.903 17.188 134.267 17.7478C134.013 17.9514 133.733 18.0532 133.428 18.0532C133.148 18.0532 132.906 17.926 132.702 17.6715C132.524 17.3916 132.282 16.8063 131.977 15.9156C131.672 15.025 131.519 14.427 131.519 14.1216C131.519 13.7908 131.723 13.2945 132.13 12.6329C132.537 11.9458 132.779 11.4878 132.855 11.2588C132.982 10.8007 133.173 10.5717 133.428 10.5717C133.555 10.5717 133.86 10.7116 134.344 10.9916C134.827 11.246 135.145 11.755 135.298 12.5184C135.349 12.8238 135.463 12.9765 135.641 12.9765C135.718 12.9765 135.934 12.8365 136.29 12.5566C136.672 12.2767 137.079 12.1367 137.512 12.1367C137.97 12.1367 138.644 12.5439 139.535 13.3582C139.84 13.6635 139.993 14.0961 139.993 14.656C139.993 15.2158 139.955 15.6103 139.878 15.8393C139.828 16.0683 139.764 16.221 139.688 16.2973C139.459 16.4755 139.28 16.7299 139.153 17.0608C139.051 17.3661 138.708 18.5622 138.123 20.6488C137.563 22.7101 137.283 23.8425 137.283 24.0461C137.283 24.2496 137.359 24.3514 137.512 24.3514C137.715 24.3514 138.53 23.7407 139.955 22.5192C141.38 21.2978 142.41 20.3944 143.047 19.8091C143.428 19.5292 143.645 19.3892 143.696 19.3892Z" fill="#FFB800"/>
<path d="M152.27 22.9391C150.184 26.6799 148.593 28.5503 147.499 28.5503C146.71 28.5503 145.998 28.0667 145.361 27.0997C145.183 26.8453 144.992 26.4508 144.789 25.9164C144.585 25.3566 144.331 24.8477 144.025 24.3896C143.745 23.9316 143.605 23.3208 143.605 22.5574C143.605 21.7685 143.758 21.0687 144.064 20.458C146.15 16.3355 148.351 13.5109 150.667 11.984C150.972 11.755 151.329 11.6405 151.736 11.6405C152.143 11.6405 152.652 11.8695 153.263 12.3276C153.619 12.6838 153.835 12.9892 153.912 13.2437C154.039 13.8035 154.103 14.147 154.103 14.2743C154.993 14.5796 155.438 15.1395 155.438 15.9538C155.438 16.5136 155.286 17.786 154.98 19.7709C154.675 21.7304 154.497 23.1936 154.446 24.1606C154.446 24.695 154.624 24.9622 154.98 24.9622C155.388 24.9622 156.113 24.2496 157.156 22.8246C158.225 21.3995 158.836 20.687 158.988 20.687C159.243 20.687 159.37 21.1069 159.37 21.9467L159.294 23.817C159.294 24.5296 158.976 25.5093 158.339 26.7562C157.703 27.9777 156.889 28.5884 155.897 28.5884C155.286 28.5884 154.802 28.3848 154.446 27.9777C154.319 27.8504 154.128 27.596 153.873 27.2143C153.085 26.0691 152.55 24.6441 152.27 22.9391ZM152.614 14.1216C149.407 17.048 147.372 20.3944 146.506 24.1606C149.077 21.9467 151.112 18.6003 152.614 14.1216Z" fill="#FFB800"/>
<path d="M172.118 22.9773L172.423 15.0759C172.423 14.7705 172.398 14.6178 172.347 14.6178C172.245 14.6178 172.131 14.8214 172.004 15.2285C171.545 16.3991 170.477 20.0508 168.797 26.1836C168.543 27.0743 168.275 27.5196 167.996 27.5196C167.868 27.5196 167.639 27.4178 167.308 27.2143C166.011 26.2727 165.362 25.1149 165.362 23.7407C165.362 22.6465 165.54 21.1578 165.896 19.2747C166.303 16.9335 166.507 15.6739 166.507 15.4957C166.507 15.2922 166.469 15.1904 166.392 15.1904C166.341 15.1904 166.252 15.3176 166.125 15.5721C164.827 18.6767 164.038 22.3793 163.759 26.6799C163.708 27.4433 163.453 27.825 162.995 27.825C162.384 27.825 161.837 27.4687 161.354 26.7562C160.463 25.4838 160.018 24.0588 160.018 22.4811C160.018 21.4886 160.132 20.229 160.361 18.7021C160.616 17.1753 160.769 16.2464 160.819 15.9156C161.252 13.2437 161.646 11.9077 162.003 11.9077C162.283 11.9077 162.499 12.2767 162.652 13.0146C162.804 13.7272 162.881 14.2488 162.881 14.5796C162.881 14.9105 162.932 15.0759 163.033 15.0759C163.313 15.0759 163.593 14.7832 163.873 14.1979C164.153 13.5872 164.497 12.9892 164.904 12.4039C165.311 11.7932 165.807 11.4878 166.392 11.4878C167.003 11.4878 167.563 11.7168 168.072 12.1749C168.581 12.6075 168.899 13.1419 169.026 13.7781C169.332 13.3454 169.84 12.7474 170.553 11.984C170.935 11.4496 171.316 11.1824 171.698 11.1824C172.105 11.1824 172.691 11.3733 173.454 11.755C174.497 12.2894 175.019 13.689 175.019 15.9538C175.019 18.2186 174.943 20.1653 174.79 21.794V22.0612C174.79 22.4429 174.866 22.6337 175.019 22.6337C175.248 22.6337 175.808 21.9976 176.699 20.7252C177.589 19.4274 178.136 18.7785 178.34 18.7785C178.696 18.7785 178.874 19.6946 178.874 21.5268C178.874 23.3335 178.225 25.1403 176.928 26.9471C176.317 27.7868 175.795 28.2067 175.363 28.2067L174.943 28.0922C173.925 27.5578 173.2 26.9471 172.767 26.26C172.334 25.5729 172.118 24.4787 172.118 22.9773Z" fill="#FFB800"/>
</svg>
