<svg width="50" height="50" viewBox="0 0 50 50" fill="none" xmlns="http://www.w3.org/2000/svg">
<rect width="50" height="50" fill="#2F2F2F"/>
<g clip-path="url(#clip0_0_1)">
<rect width="1920" height="1557" transform="translate(-857 -210)" fill="white"/>
<rect x="-187.5" y="-53.5" width="1009" height="1105" rx="4.5" stroke="black"/>
<circle cx="25" cy="25" r="25" fill="#8D8D8D"/>
<path d="M14.828 25.74H12.152V21.996H14.828V25.74ZM11.168 25.74H9.524V26.544H17.456V25.74H15.812V21.996H17.48V21.204H9.5V21.996H11.168V25.74ZM8.636 28.692V29.508H18.392V28.692H8.636ZM25.0391 28.752V26.724H28.4831V25.932H21.8591V24.192H28.2311V20.916H20.8631V21.72H27.2711V23.4H20.8871V26.724H24.0431V28.752H19.6631V29.556H29.4431V28.752H25.0391ZM39.5581 20.124H38.5741V25.716H39.5581V20.124ZM33.2101 21.624H34.9621V24.42C34.3741 24.456 33.7861 24.48 33.2101 24.492V21.624ZM37.4941 24.216C36.9781 24.264 36.4501 24.324 35.9101 24.36V21.624H36.9661V20.844H31.1941V21.624H32.2501V24.516C31.7821 24.528 31.3261 24.528 30.9061 24.528L31.0021 25.344C32.8981 25.332 35.4061 25.26 37.5421 24.936L37.4941 24.216ZM33.5341 29.988V28.812H39.5581V26.232H32.5261V27H38.5861V28.08H32.5621V30.768H39.9661V29.988H33.5341Z" fill="white"/>
</g>
<defs>
<clipPath id="clip0_0_1">
<rect width="1920" height="1557" fill="white" transform="translate(-857 -210)"/>
</clipPath>
</defs>
</svg>
