<svg width="100" height="100" viewBox="0 0 100 100" fill="none" xmlns="http://www.w3.org/2000/svg">
<path fill-rule="evenodd" clip-rule="evenodd" d="M39.8985 24.8609C42.5775 22.1818 46.2112 20.6767 50 20.6767C53.7888 20.6767 57.4224 22.1818 60.1015 24.8609C62.7806 27.54 64.2857 31.1736 64.2857 34.9624V38.7218H68.0451C69.441 38.7218 70.7797 39.2763 71.7667 40.2633C72.7537 41.2504 73.3082 42.5891 73.3082 43.985V74.0601C73.3082 75.456 72.7537 76.7947 71.7667 77.7818C70.7797 78.7688 69.441 79.3233 68.0451 79.3233H31.9549C30.559 79.3233 29.2203 78.7688 28.2333 77.7818C27.2462 76.7947 26.6917 75.456 26.6917 74.0601V43.985C26.6917 42.5891 27.2462 41.2504 28.2333 40.2633C29.2203 39.2763 30.559 38.7218 31.9549 38.7218H35.7143V34.9624C35.7143 31.1736 37.2194 27.54 39.8985 24.8609ZM31.9549 43.2331C31.7555 43.2331 31.5642 43.3123 31.4232 43.4533C31.2822 43.5943 31.203 43.7856 31.203 43.985V74.0601C31.203 74.2596 31.2822 74.4508 31.4232 74.5918C31.5642 74.7328 31.7555 74.812 31.9549 74.812H68.0451C68.2445 74.812 68.4357 74.7328 68.5768 74.5918C68.7178 74.4508 68.797 74.2596 68.797 74.0601V43.985C68.797 43.7855 68.7178 43.5943 68.5768 43.4533C68.4357 43.3123 68.2445 43.2331 68.0451 43.2331H31.9549ZM59.7744 38.7218H40.2255V34.9624C40.2255 32.3701 41.2553 29.8839 43.0884 28.0508C44.9215 26.2178 47.4076 25.188 50 25.188C52.5923 25.188 55.0785 26.2178 56.9115 28.0508C58.7446 29.8839 59.7744 32.3701 59.7744 34.9624V38.7218ZM50 55.2632C49.5539 55.2632 49.1178 55.3954 48.7468 55.6433C48.3759 55.8912 48.0868 56.2434 47.916 56.6556C47.7453 57.0678 47.7006 57.5213 47.7877 57.9589C47.8747 58.3964 48.0895 58.7983 48.405 59.1138C48.7205 59.4292 49.1224 59.6441 49.5599 59.7311C49.9975 59.8181 50.451 59.7735 50.8632 59.6027C51.2753 59.432 51.6276 59.1429 51.8755 58.772C52.1233 58.401 52.2556 57.9649 52.2556 57.5188C52.2556 56.9206 52.018 56.3468 51.595 55.9238C51.1719 55.5008 50.5982 55.2632 50 55.2632ZM46.2405 51.8923C47.3533 51.1488 48.6616 50.7519 50 50.7519C51.7947 50.7519 53.5159 51.4648 54.7849 52.7339C56.054 54.0029 56.7669 55.7241 56.7669 57.5188C56.7669 58.8572 56.37 60.1655 55.6265 61.2783C54.8829 62.3911 53.8261 63.2584 52.5896 63.7706C52.4792 63.8163 52.3678 63.859 52.2556 63.8987V65.0376C52.2556 66.2833 51.2457 67.2932 50 67.2932C48.7542 67.2932 47.7443 66.2833 47.7443 65.0376V63.8987C46.7967 63.5637 45.9315 63.0202 45.215 62.3037C44.2687 61.3574 43.6242 60.1516 43.3631 58.839C43.102 57.5263 43.236 56.1657 43.7482 54.9292C44.2603 53.6927 45.1277 52.6359 46.2405 51.8923Z" fill="#FFB800"/>
<path fill-rule="evenodd" clip-rule="evenodd" d="M50 4.51128C41.0032 4.51128 32.2084 7.17915 24.7278 12.1775C17.2473 17.1759 11.4169 24.2802 7.97392 32.5922C4.53099 40.9042 3.63016 50.0505 5.38535 58.8744C7.14054 67.6983 11.4729 75.8037 17.8346 82.1654C24.1963 88.5271 32.3017 92.8595 41.1256 94.6147C49.9496 96.3699 59.0958 95.469 67.4078 92.0261C75.7198 88.5832 82.8241 82.7527 87.8225 75.2722C92.8209 67.7916 95.4887 58.9968 95.4887 50C95.4887 37.9356 90.6962 26.3654 82.1654 17.8346C73.6346 9.30382 62.0644 4.51128 50 4.51128ZM22.2215 8.42652C30.444 2.93245 40.111 0 50 0C63.2608 0 75.9785 5.26784 85.3553 14.6447C94.7322 24.0215 100 36.7392 100 50C100 59.8891 97.0676 69.556 91.5735 77.7785C86.0794 86.001 78.2705 92.4096 69.1342 96.194C59.9979 99.9783 49.9445 100.969 40.2455 99.0393C30.5465 97.11 21.6373 92.3479 14.6447 85.3553C7.65206 78.3627 2.89002 69.4536 0.960758 59.7545C-0.968502 50.0555 0.0216638 40.0021 3.80604 30.8658C7.59043 21.7295 13.9991 13.9206 22.2215 8.42652Z" fill="#FFB800"/>
</svg>
